<svg width="21" height="22" viewBox="0 0 21 22" fill="none" xmlns="http://www.w3.org/2000/svg">
<g clip-path="url(#clip0_678_4119)">
<path d="M8.78098 10.82H7.07353V12.5275H5.36608V10.82H3.65862V9.11259H5.36608V7.40514H7.07353V9.11259H8.78098V10.82ZM14.7571 11.2469C14.7571 10.5383 14.1851 9.96632 13.4765 9.96632C12.7679 9.96632 12.1959 10.5383 12.1959 11.2469C12.1959 11.9555 12.7679 12.5275 13.4765 12.5275C14.1851 12.5275 14.7571 11.9555 14.7571 11.2469ZM17.3182 8.68573C17.3182 7.97713 16.7462 7.40514 16.0376 7.40514C15.3291 7.40514 14.7571 7.97713 14.7571 8.68573C14.7571 9.39432 15.3291 9.96632 16.0376 9.96632C16.7462 9.96632 17.3182 9.39432 17.3182 8.68573ZM14.7314 4.97202L10.8897 7.13195L10.4714 7.36245L10.053 7.13195L6.21126 4.97202L2.8049 6.88436V12.3738L10.4714 16.6766L18.1378 12.3738V6.88436L14.7314 4.97202ZM14.7314 3.99023L18.9915 6.38067V12.869L10.4714 17.6498L1.95117 12.869V6.38067L6.21126 3.99023L10.4714 6.38067L14.7314 3.99023Z" fill="#030303"/>
</g>
<defs>
<clipPath id="clip0_678_4119">
<rect width="20.4894" height="20.4894" fill="white" transform="translate(0.244141 0.575195)"/>
</clipPath>
</defs>
</svg>
