<svg width="21" height="21" viewBox="0 0 21 21" fill="none" xmlns="http://www.w3.org/2000/svg">
<g clip-path="url(#clip0_678_4198)">
<path d="M13.2691 14.6958L9.02607 12.0663V6.20125H10.7335V11.1187L14.174 13.2445L13.2691 14.6958ZM19.2708 10.4699C19.2708 15.1739 15.4375 19.0071 10.7335 19.0071C6.02949 19.0071 2.19626 15.1739 2.19626 10.4699H3.04998C3.04998 14.7044 6.49904 18.1534 10.7335 18.1534C14.968 18.1534 18.4171 14.7044 18.4171 10.4699C18.4171 6.2354 14.968 2.78634 10.7335 2.78634C8.01013 2.78634 5.54286 4.18645 4.14275 6.52566C4.04884 6.67933 3.95493 6.84154 3.8781 7.00375C3.86956 7.02082 3.86102 7.0379 3.85249 7.05497H7.31861V7.9087H2.16211V2.78634H3.01584V6.833C3.04998 6.75617 3.0756 6.68787 3.10974 6.61957C3.20365 6.43175 3.3061 6.26101 3.40855 6.08172C4.94526 3.52055 7.75401 1.93262 10.7335 1.93262C15.4375 1.93262 19.2708 5.76585 19.2708 10.4699Z" fill="#030303"/>
</g>
<defs>
<clipPath id="clip0_678_4198">
<rect width="20.4894" height="20.4894" fill="white" transform="translate(0.489258 0.223633)"/>
</clipPath>
</defs>
</svg>
