<svg width="21" height="21" viewBox="0 0 21 21" fill="none" xmlns="http://www.w3.org/2000/svg">
<g clip-path="url(#clip0_678_4202)">
<path d="M15.0164 8.79922H11.6324L12.8484 4.84722C13.1044 4.02322 12.4324 3.19922 11.5044 3.19922C11.0404 3.19922 10.5924 3.39122 10.2884 3.71922L5.60039 8.79922H2.40039V16.7992H5.60039H6.40039H13.9444C14.7924 16.7992 15.5284 16.2632 15.6964 15.5112L16.7684 10.7112C16.9844 9.71922 16.1444 8.79922 15.0164 8.79922ZM5.60039 15.9992H3.20039V9.59922H5.60039V15.9992ZM15.9844 10.5352L14.9124 15.3352C14.8324 15.7192 14.4244 15.9992 13.9444 15.9992H6.40039V9.11122L10.8804 4.26322C11.0324 4.09522 11.2644 3.99922 11.5044 3.99922C11.7124 3.99922 11.9044 4.08722 12.0084 4.23922C12.0644 4.31922 12.1284 4.44722 12.0804 4.61522L10.8644 8.56722L10.5444 9.59922H11.6244H15.0084C15.3364 9.59922 15.6484 9.73522 15.8324 9.96722C15.9364 10.0872 16.0404 10.2872 15.9844 10.5352Z" fill="#0F0F0F"/>
</g>
<defs>
<clipPath id="clip0_678_4202">
<rect width="20.49" height="20.49" fill="white"/>
</clipPath>
</defs>
</svg>
