<svg width="20" height="20" viewBox="0 0 20 20" fill="none" xmlns="http://www.w3.org/2000/svg">
<g clip-path="url(#clip0_678_4211)">
<path d="M9.60039 13.1996C10.2644 13.1996 10.8004 13.7356 10.8004 14.3996C10.8004 15.0636 10.2644 15.5996 9.60039 15.5996C8.93639 15.5996 8.40039 15.0636 8.40039 14.3996C8.40039 13.7356 8.93639 13.1996 9.60039 13.1996ZM8.40039 9.59961C8.40039 10.2636 8.93639 10.7996 9.60039 10.7996C10.2644 10.7996 10.8004 10.2636 10.8004 9.59961C10.8004 8.93561 10.2644 8.39961 9.60039 8.39961C8.93639 8.39961 8.40039 8.93561 8.40039 9.59961ZM8.40039 4.79961C8.40039 5.46361 8.93639 5.99961 9.60039 5.99961C10.2644 5.99961 10.8004 5.46361 10.8004 4.79961C10.8004 4.13561 10.2644 3.59961 9.60039 3.59961C8.93639 3.59961 8.40039 4.13561 8.40039 4.79961Z" fill="#030303"/>
</g>
<defs>
<clipPath id="clip0_678_4211">
<rect width="19.2" height="19.2" fill="white"/>
</clipPath>
</defs>
</svg>
