<svg width="20" height="20" viewBox="0 0 20 20" fill="none" xmlns="http://www.w3.org/2000/svg">
<g clip-path="url(#clip0_680_3277)">
<path d="M10.0008 2.7998C8.67278 2.7998 7.60078 3.8958 7.60078 5.2558V9.9438C7.60078 11.3038 8.67278 12.3998 10.0008 12.3998C11.3288 12.3998 12.4008 11.3038 12.4008 9.9438V5.2558C12.4008 3.8958 11.3288 2.7998 10.0008 2.7998ZM15.2008 9.9998H14.4008C14.4008 12.4238 12.4248 14.3998 10.0008 14.3998C7.57678 14.3998 5.60078 12.4238 5.60078 9.9998H4.80078C4.80078 12.5918 6.71278 14.7438 9.20078 15.1278V17.1998H10.8008V15.1278C13.2888 14.7438 15.2008 12.5918 15.2008 9.9998Z" fill="#0F0F0F"/>
</g>
<defs>
<clipPath id="clip0_680_3277">
<rect width="19.2" height="19.2" fill="white" transform="translate(0.400391 0.400391)"/>
</clipPath>
</defs>
</svg>
