<svg width="21" height="21" viewBox="0 0 21 21" fill="none" xmlns="http://www.w3.org/2000/svg">
<g clip-path="url(#clip0_678_4098)">
<path d="M10.4888 3.54492V11.5529C9.86556 10.8357 8.95207 10.3747 7.9276 10.3747C6.04086 10.3747 4.5127 11.9029 4.5127 13.7896C4.5127 15.6764 6.04086 17.2045 7.9276 17.2045C9.81433 17.2045 11.3425 15.6764 11.3425 13.7896V6.95983H16.4649V3.54492H10.4888ZM7.9276 16.3508C6.51041 16.3508 5.36642 15.2068 5.36642 13.7896C5.36642 12.3724 6.51041 11.2285 7.9276 11.2285C9.34478 11.2285 10.4888 12.3724 10.4888 13.7896C10.4888 15.2068 9.34478 16.3508 7.9276 16.3508ZM15.6111 6.1061H11.3425V4.39865H15.6111V6.1061Z" fill="#030303"/>
</g>
<defs>
<clipPath id="clip0_678_4098">
<rect width="20.4894" height="20.4894" fill="white" transform="translate(0.244141 0.128906)"/>
</clipPath>
</defs>
</svg>
