<svg width="21" height="21" viewBox="0 0 21 21" fill="none" xmlns="http://www.w3.org/2000/svg">
<path d="M8.53754 17.0754H11.9525C11.9525 18.0146 11.1842 18.7829 10.245 18.7829C9.30591 18.7829 8.53754 18.0146 8.53754 17.0754ZM17.075 14.813V16.2217H3.41504V14.813L5.12254 13.208V8.81114C5.12254 6.31819 6.45439 4.35456 8.53754 3.70571V3.38129C8.53754 2.16896 9.80963 1.24691 11.0903 1.87869C11.6452 2.15189 11.9525 2.75805 11.9525 3.38129V3.71425C14.0357 4.35456 15.3675 6.32673 15.3675 8.81968V13.2165L17.075 14.813ZM16.2213 15.1716L14.5138 13.5665V8.89651C14.5138 6.78775 13.4978 5.17416 11.8416 4.54239C10.7658 4.0899 9.58765 4.11551 8.56315 4.568C6.9581 5.21685 5.97629 6.8219 5.97629 8.89651V13.5665L4.26879 15.1716V15.3679H16.2213V15.1716Z" fill="black"/>
</svg>
