<svg width="20" height="20" viewBox="0 0 20 20" fill="none" xmlns="http://www.w3.org/2000/svg">
<g clip-path="url(#clip0_678_4215)">
<path d="M16.6964 16.1354L12.2244 11.6634C13.0804 10.6794 13.6004 9.39941 13.6004 7.99941C13.6004 4.90341 11.0964 2.39941 8.00039 2.39941C4.90439 2.39941 2.40039 4.90341 2.40039 7.99941C2.40039 11.0954 4.90439 13.5994 8.00039 13.5994C9.40039 13.5994 10.6804 13.0794 11.6644 12.2314L16.1364 16.7034L16.6964 16.1354ZM8.00039 12.7994C5.35239 12.7994 3.20039 10.6474 3.20039 7.99941C3.20039 5.35141 5.35239 3.19941 8.00039 3.19941C10.6484 3.19941 12.8004 5.35141 12.8004 7.99941C12.8004 10.6474 10.6484 12.7994 8.00039 12.7994Z" fill="#0F0F0F"/>
</g>
<defs>
<clipPath id="clip0_678_4215">
<rect width="19.2" height="19.2" fill="white"/>
</clipPath>
</defs>
</svg>
