<svg width="21" height="21" viewBox="0 0 21 21" fill="none" xmlns="http://www.w3.org/2000/svg">
<g clip-path="url(#clip0_678_4175)">
<path d="M9.02646 12.7305V8.20576L13.2951 10.4681L9.02646 12.7305ZM15.6599 9.03388C15.0025 8.76068 14.6354 8.60701 14.6354 8.60701L15.8563 7.95818C17.4271 7.1386 18.0162 5.20065 17.1881 3.63833C16.36 2.07601 14.422 1.4784 12.8597 2.30652L5.61155 6.14828C4.51025 6.72882 3.84434 7.88988 3.9041 9.12779C3.96386 10.3401 4.69807 11.4072 5.79937 11.9024C5.82499 11.9109 6.82384 12.3293 6.82384 12.3293L5.61155 12.9696C4.04924 13.7977 3.45163 15.7356 4.27974 17.2979C5.10786 18.8603 7.04581 19.4579 8.60813 18.6298L15.8648 14.788C16.9661 14.2075 17.6235 13.0464 17.5637 11.8085C17.504 10.5962 16.7612 9.5205 15.6599 9.03388ZM15.4636 14.0367L8.20688 17.8785C7.06289 18.4846 5.63717 18.0492 5.03102 16.9052C4.42488 15.7612 4.86028 14.3355 6.00427 13.7294L7.74587 12.8073V11.7743L7.1568 11.5353L6.20916 11.1426C5.36397 10.7926 4.80051 9.99005 4.75783 9.0851C4.71514 8.18015 5.20177 7.32642 6.00427 6.89956L13.2609 3.05779C14.4049 2.45165 15.8307 2.88705 16.4368 4.03104C17.0429 5.17503 16.6075 6.60076 15.4636 7.2069L13.7219 8.12893V9.16194L15.2587 9.79369C16.1038 10.1437 16.6673 10.9462 16.71 11.8512C16.7527 12.7561 16.2661 13.6098 15.4636 14.0367Z" fill="#030303"/>
</g>
<defs>
<clipPath id="clip0_678_4175">
<rect width="20.4894" height="20.4894" fill="white" transform="translate(0.489258 0.224609)"/>
</clipPath>
</defs>
</svg>
