<svg width="21" height="22" viewBox="0 0 21 22" fill="none" xmlns="http://www.w3.org/2000/svg">
<path d="M14.7576 3.4338V5.14126V5.99498V9.40988V9.84528L14.7491 10.238C14.7064 12.0564 13.6136 13.6273 11.9745 14.2505H11.9574L11.9062 14.2676L11.3427 14.4896V15.0872V17.0934V17.9471H12.1964V18.8009H13.0502H8.78153V17.9471H9.63526V17.0934V15.0872V14.4896L9.0718 14.2847L9.0035 14.259H8.99497C7.35581 13.6358 6.26304 12.065 6.22036 10.2465V9.84528V9.40988V5.99498V5.14126V3.4338H14.7576ZM15.6113 2.58008H5.36663V5.14126H3.65918V5.99498V9.40988V10.2636H5.37517C5.42639 12.4235 6.7582 14.3444 8.75592 15.0786C8.76446 15.0786 8.773 15.0786 8.78153 15.0872V17.0934H7.92781V17.9471H7.07408V19.6546H13.9039V17.9471H13.0502V17.0934H12.1964V15.0872C12.205 15.0872 12.2135 15.0872 12.222 15.0786C14.2112 14.3444 15.5516 12.4321 15.6028 10.2636H17.3188V9.40988V5.99498V5.14126H15.6113V2.58008ZM15.6113 9.40988V5.99498H16.4651V9.40988H15.6113ZM4.51291 9.40988V5.99498H5.36663V9.40988H4.51291Z" fill="#030303"/>
</svg>
