<svg width="21" height="22" viewBox="0 0 21 22" fill="none" xmlns="http://www.w3.org/2000/svg">
<g clip-path="url(#clip0_678_4084)">
<path d="M12.8121 16.0582C12.5389 16.2887 12.1035 16.5106 11.762 16.6216C10.618 16.9034 9.70452 16.3314 9.52523 16.2289C9.34595 16.135 8.85933 15.9045 8.85933 15.9045C8.85933 15.9045 9.15813 15.8106 9.20936 15.7935C10.3533 15.3325 10.8229 14.7349 10.9936 13.9922C11.1644 13.275 10.857 12.6603 10.729 11.9518C10.6265 11.3627 10.6351 10.859 10.8314 10.3297C10.8485 10.287 10.9339 9.96257 10.9339 9.96257C10.9339 9.96257 11.0278 10.2614 11.0449 10.3126C11.651 11.6017 13.367 12.1737 13.6658 13.5909C13.6914 13.719 13.7085 13.847 13.7085 13.9836C13.7341 14.7434 13.3926 15.563 12.8121 16.0582ZM10.8314 4.53287C10.729 4.60117 10.6436 4.66093 10.5668 4.72069C8.01414 6.6928 8.08244 9.78329 8.59467 12.02L8.60321 12.0457L8.61175 12.0713C8.66297 12.3701 8.56906 12.6689 8.37271 12.8909C8.16781 13.1128 7.87754 13.2409 7.56166 13.2409C7.18603 13.2409 6.836 13.0701 6.52012 12.7286C5.94812 12.1054 5.52126 11.3883 5.23953 10.6285C4.93219 11.2858 4.59924 12.3189 4.66753 13.3519C4.70168 13.7873 4.76998 14.2056 4.88097 14.5727C5.03464 15.0849 5.24807 15.563 5.52126 15.9813C6.41767 17.3985 7.97999 18.3888 9.60207 18.5852C9.96063 18.6279 10.3277 18.6535 10.6778 18.6535C11.8218 18.6535 13.4524 18.423 14.7244 17.3131C16.2355 15.9813 16.7307 13.9068 15.9538 12.1396C15.9196 12.0542 15.9026 12.0201 15.877 11.9774L15.8428 11.9091C15.6635 11.5505 15.4416 11.2175 15.2025 10.9358C14.9976 10.6797 14.7927 10.4577 14.5281 10.2272C14.2719 9.99672 13.9817 9.79183 13.6743 9.56986C13.2816 9.28813 12.8804 8.99786 12.4962 8.6393C11.3266 7.51238 10.7461 6.04397 10.8314 4.53287ZM12.5474 2.53516C12.5474 2.53516 12.3767 2.7059 12.0693 3.38034C11.5059 5.0195 11.9413 6.75256 13.2133 7.98193C13.8365 8.571 14.5878 8.98079 15.2281 9.55278C15.5013 9.80036 15.7574 10.0565 15.9879 10.3467C16.2953 10.7053 16.5514 11.1066 16.7648 11.5249C16.8075 11.6103 16.8502 11.6956 16.8844 11.781C17.8405 13.958 17.1917 16.4509 15.4074 18.0217C14.1012 19.1572 12.3852 19.6097 10.6778 19.6097C10.2765 19.6097 9.86673 19.5841 9.47401 19.5328C7.51898 19.2938 5.70054 18.1157 4.66753 16.485C4.33458 15.9728 4.087 15.4093 3.91626 14.8373C3.77966 14.3763 3.70282 13.8982 3.66868 13.4116C3.56623 11.8066 4.24067 10.3126 4.5907 9.73206C4.94073 9.14299 5.91397 7.87094 5.91397 7.87094C5.91397 7.87094 5.91397 7.89655 5.90544 7.94778C5.71762 9.45887 6.22132 10.97 7.26286 12.114C7.39092 12.2591 7.49337 12.3018 7.55313 12.3018C7.60435 12.3018 7.62996 12.2676 7.62143 12.2249C6.89576 9.01494 7.39092 5.95006 9.93502 3.98649C10.4387 3.59378 11.2241 3.18399 11.6254 2.97909C12.0267 2.7742 12.5474 2.53516 12.5474 2.53516Z" fill="#030303"/>
</g>
<defs>
<clipPath id="clip0_678_4084">
<rect width="20.4894" height="20.4894" fill="white" transform="translate(0.244141 0.829102)"/>
</clipPath>
</defs>
</svg>
