<svg width="21" height="21" viewBox="0 0 21 21" fill="none" xmlns="http://www.w3.org/2000/svg">
<path d="M12.7802 14.4706L8.53703 11.841V5.97578H10.2445V10.8934L13.6851 13.0192L12.7802 14.4706ZM10.2445 2.56078C6.00993 2.56078 2.56078 6.00993 2.56078 10.2445C2.56078 14.4791 6.00993 17.9283 10.2445 17.9283C14.4791 17.9283 17.9283 14.4791 17.9283 10.2445C17.9283 6.00993 14.4791 2.56078 10.2445 2.56078ZM10.2445 1.70703C14.9572 1.70703 18.782 5.53183 18.782 10.2445C18.782 14.9572 14.9572 18.782 10.2445 18.782C5.53183 18.782 1.70703 14.9572 1.70703 10.2445C1.70703 5.53183 5.53183 1.70703 10.2445 1.70703Z" fill="black"/>
</svg>
